<svg xmlns="http://www.w3.org/2000/svg" xmlns:xlink="http://www.w3.org/1999/xlink" viewBox="0 0 1959.91 1668.36"><defs><style>.cls-1{fill:#26005e;}.cls-2{fill:#defefe;}.cls-3{fill:#1a0053;}.cls-4{fill:#28256d;}.cls-5{fill:#242062;}.cls-6{fill:#280144;}.cls-7{fill:#fefefe;}.cls-8{fill:#7554a3;}.cls-9{fill:#fdaabe;}.cls-10{fill:#cadff9;}.cls-11{fill:#bf8fe5;}.cls-12{fill:#b4fdfe;}.cls-13{fill:#c6d7f8;}.cls-14{fill:#fdcdf3;}.cls-15{fill:url(#linear-gradient);}.cls-16{fill:#a2def9;}.cls-17{fill:url(#linear-gradient-2);}.cls-18{fill:#64ecfc;}.cls-19{fill:#ff7a72;}.cls-20{fill:#f2bd50;}.cls-21{fill:#f6f9fa;}</style><linearGradient id="linear-gradient" x1="636.88" y1="3360.31" x2="634.99" y2="3422.14" gradientTransform="matrix(1, 0, 0, -1, 0, 3595.02)" gradientUnits="userSpaceOnUse"><stop offset="0" stop-color="#e8fffe"/><stop offset="1" stop-color="#fffbfe"/></linearGradient><linearGradient id="linear-gradient-2" x1="1123.77" y1="2707.87" x2="1102.47" y2="2728.75" gradientTransform="matrix(1, 0, 0, -1, 0, 3595.02)" gradientUnits="userSpaceOnUse"><stop offset="0" stop-color="#9f6dcd"/><stop offset="1" stop-color="#c188e0"/></linearGradient></defs><g id="Layer_2" data-name="Layer 2"><g id="Layer_1-2" data-name="Layer 1"><path class="cls-1" d="M408.51.87C415.92-.29,425.2-.76,432.16,2.5c33,15.46,63,122.85,76,156.61,89.48-13.11,181.77.17,258.5,50.29A247.07,247.07,0,0,1,810,154.9c20.28-19,51.94-41.95,81.3-40.44,15.3.79,27.78,9.67,37.51,20.87,29.09,33.47,44.33,100,45.89,144.57.65,18.75-1.48,37.38-2.78,56.06,81.23,89.26,102.85,180.38,111.36,297.87,2.63,36.33,2,74.91,11.57,110.26,6.44,23.95,18.68,49.46,41.27,62,19.48,10.82,39.58,7.55,59.93,2.12,4.17,3,7.83,5.52,9.93,10.33,3.08,7.07,1.31,14.82-1.68,21.58-11.74,26.51-33.34,41.8-59.48,52.08,5.77,36.35,7.16,71-3.79,106.72-18.66,60.76-56.25,94.07-110.77,123-.08,5.35,0,10.95-1,16.21-3.62,19.05-14.43,29.68-29.9,39.81l-.28,2.64c3.4,8.42,20.53,10.21,28,16.62,11.94,10.26,14.9,32.48,11.15,47.2-2.4,9.43-7.69,17.79-9.13,27.58-1.39,9.43-.35,20-.25,29.63a323.09,323.09,0,0,1-1.49,33.79,41.39,41.39,0,0,0,0,10c.48,3,1.79,4.53,4.41,6,13.82,7.8,63.56,10.16,79,5.86,13.23-3.67,41-17.58,52.1-16.71a9.59,9.59,0,0,1,4.46,4.71c3.31,6.2,3.11,13.91,4.22,20.73q.57,3.67,1,7.36c.32,2.47.6,4.93.84,7.4s.45,4.93.62,7.41.31,4.95.42,7.43.18,5,.22,7.43,0,5,0,7.44-.09,5-.19,7.44-.23,4.95-.4,7.43-.37,5-.61,7.42-.5,4.93-.81,7.39-.64,4.91-1,7.37-.78,4.9-1.22,7.34-.91,4.87-1.42,7.3-1,4.85-1.62,7.26-1.18,4.82-1.82,7.21-1.31,4.79-2,7.16c-15.14,52.13-49.12,97.9-97.1,123.89-32,17.36-59,21.59-94.78,21.53-28.83,0-53.06-3-80.69-11.72-16.62-5.22-32.22-13.64-48.67-18.57-9.09,9.57-12.86,26.75-25.8,39.71-1.36,1.29-2.77,2.54-4.22,3.73s-2.94,2.34-4.47,3.44-3.1,2.14-4.69,3.13-3.23,1.93-4.9,2.8c-35.47,19.21-89.31,21.1-127.48,9.2-45.83-14.27-57.5-48.81-68-91.53q-7.15-28.47-12.46-57.34c-1.11-6.35-2.56-25-5.55-29.79-.88-1.4-2.89-1.87-4.45-2-3.22-.22-4.3.66-6.59,2.54-1.92,4-1.8,8.26-2.14,12.62-2.32,30.56-10.28,88.68-22,116.42-4.59,10.83-11,21-20.14,28.5-28.49,23.49-75.18,27.2-110.3,23-26.92-3.21-50.59-14.08-67.43-35.88-39.72-51.39-49.17-240.15-40.64-304-13.13-13.78-18.23-25.32-18.82-44.41-26.81-2-47.69-7.15-67.77-26.06-27.79-26.14-32.78-58.06-34-94.46-31.15-9.87-55.93-26.45-77.8-50.74C71.93,1062.65,63.22,1012,66.47,953.06c-24.68-7.57-46.24-16.82-60.22-40.12-4-6.59-7.77-15.54-5.64-23.34.58-2.11,1-4.46,2.61-6,6-6,31.85-8.62,43.37-15.84a54.33,54.33,0,0,0,4.52-3.14c1.46-1.12,2.87-2.3,4.21-3.55C90.45,828.3,88.18,755.54,88.58,711q.11-33.44,1.14-66.87c1.41-39.68,4.19-78.45,13-117.27,6.74-29.73,16.55-60.15,31.18-87,5.21-9.56,23.71-30.87,24-40.37.22-7.85-10.34-20-13.58-27.82-20.53-49.45-20.07-105.89-7.84-157.33,7-29.56,20.61-69.61,48.5-86,12.51-7.36,26.32-8.14,40.14-4.51,37.6,9.87,71.12,52.07,89.52,84.05,7.16-2.18,14.29-6.33,21.15-9.44q15.64-7.11,31.9-12.74C367.54,141.39,363.66,67,382,27,387.67,14.49,395.46,5.61,408.51.87Z"/><path class="cls-2" d="M160.58,361.55l1.64-2.67c3.62-.87,7.26-3.78,9.47-6.73,1.74-2.33,1.29-1.8,3.86-2.42-3.33,8.56-6.93,17.11-9.13,26C164.45,371,162.36,366.35,160.58,361.55Z"/><path class="cls-3" d="M736.25,953.52c14.64-5.37,29-11.7,43.41-17.61l.1,2.06c-7.62,7.41-28.62,15-39.2,16.89Z"/><path class="cls-4" d="M318.2,1272c1.59,1,.77.26,2.06,2.5-.68,6.94-1.37,19.83-6.19,24.79-2.39-4.94-5-11.35-4-16.93C311,1277.13,314.24,1275,318.2,1272Z"/><path class="cls-5" d="M369,1179.18c4.46-9.22,16.36-19.64,17.39-29.49a120,120,0,0,1-7.89,43c-2.56-5.93-1-11.67.12-17.72l-1.82-.82.06-.42C374.09,1175.41,371.54,1177.27,369,1179.18Z"/><path class="cls-3" d="M854.14,1522.26l-1.77-.21c-1.4-12.07.16-25.43.24-37.69.06-9.7-1.06-20-.25-29.67.47-5.51,3.58-9.11,2.92-15-.31-2.87-.51-4.37.34-7.12l1.72.28C858.27,1447.9,858.69,1510.85,854.14,1522.26Z"/><path class="cls-3" d="M919.24,795.77l1.1,2.47c-2.25,4.93-5.1,10.47-6,15.84l1.3-1.9c-8.15,23.72-44.12,74.09-67,83.44-2.35,1-3.63.79-6.07.48,30.35-26.42,56.07-56.74,72.81-93.6Z"/><path class="cls-6" d="M514.36,179.26c2.94,8.44,6,16.73,9.5,25l5.27,13.7c3.27,7.82,3.85,11.52,1.77,19.69-5.23,14-16.09,21.58-29.24,27.5a134.16,134.16,0,0,1-12.85,5c7.74-8.64,20.09-10,25.45-21.69.94-5.17.3-9.78-.29-14.94a51.74,51.74,0,0,1,2.15-8c3.23,5.82,1.18,13.65,4.06,19.89a15.64,15.64,0,0,0,3.9-5.19c2.19-5,2.3-12.81,0-17.72-1-2.23-.86-.95-1-3.76,0-.59,0-1.18,0-1.77a3.16,3.16,0,0,1-.43-.38c-5.09-6.48-12.17-24.36-11.43-32.59C511.56,181.07,512.25,180.91,514.36,179.26Z"/><path class="cls-3" d="M956.79,540.61c-.79-1.79-1.41-3.68-2.09-5.51l0,2.68-.32-.31c-3.06-11-19.1-54.62-15.77-62.51a269.26,269.26,0,0,1,19.65,65.12c2.8,15.53,7,33,6.23,48.78a7.68,7.68,0,0,0-1.38,3.24c0,.21-1.28,74-1.11,75a9.21,9.21,0,0,0,.49,1.39c.08,4.1.13,6.52-2,10.1-1.83-7.93.19-19.52.3-27.79q.12-22.29-.38-44.57c-.43-13.67-.42-28.14-2.15-41.68-.93-7.3-4.21-14.12-4.13-21.47l1.75,1.32,1.21-1.91-.67.41Z"/><path class="cls-7" d="M911.49,1232a20,20,0,0,1,3.39-4.48c5-4.52,86.39-21.65,95.68-20.73,4.16.42,6,3.29,8.36,6.31-1.79,2.75-1.77,2.8-5.08,3.53-9.13,2-99.23,17.2-101.41,16.63Z"/><path class="cls-7" d="M957.53,977.15c21.93,11,36.3,27.29,44.08,50.75,3.15,9.5,5,19.41,6.91,29.23-.81,2.62-.74,3-2.92,4.55-3.85-2.23-11-28.5-15.21-36.09-9.11-16.56-21-27.58-36.45-38.16-2.11-2.14-4.83-4.15-5.29-7.27C950.86,977.94,954.57,977.75,957.53,977.15Z"/><path class="cls-8" d="M328.88,1024.32l1.19.5c13,5.23,34.31,6,40.85,20.66,1.07,2.39,1.15,5.12,1.46,7.68s.52,4,2,6.24c1.5-2.72.62-4.91,2.59-7.41l1.17,1.73c-.81,5.34-2.23,10.64-3.43,15.91-14.53-15.52-32.29-23.92-53.09-26.92Z"/><path class="cls-9" d="M497.59,189.7c5.77,14.28,12.13,28.94,16.38,43.74.59,5.16,1.23,9.77.29,14.94-5.36,11.66-17.71,13.05-25.45,21.69a31.24,31.24,0,0,1-7.46,2.52c6-6.55,12.72-10.49,16.72-19.17,4.64-10-.19-20.83-3.45-30.48-2.36-2.13-3.88-6.77-5.39-9.7-3.09-.94-3.82,0-6.67,1.39,2.92-3.35,7.22-7.23,8.6-11.47A90.29,90.29,0,0,0,497.59,189.7Z"/><path class="cls-9" d="M494.62,222.94c-1-6.79-2.82-11.06-.93-18.11l0,.75,1.71-.63c6.09,15.46,5.86,32.16,11.22,47.79,2.45-1.65,4.79-3.41,7.62-4.36-5.36,11.66-17.71,13.05-25.45,21.69a31.24,31.24,0,0,1-7.46,2.52c6-6.55,12.72-10.49,16.72-19.17C502.71,243.37,497.88,232.59,494.62,222.94Z"/><path class="cls-10" d="M173.15,311.07c3,8.76,6.46,17.53,8.92,26.47-1.69,3.37-3.85,9.77-6.52,12.19-2.57.62-2.12.09-3.86,2.42-2.21,3-5.85,5.86-9.47,6.73l-1.64,2.67a244.4,244.4,0,0,1-10.76-43.12c7-1.07,13.3-4.45,20.68-5.33l1.28-.14Z"/><path class="cls-5" d="M828.27,986.21c7.06,5.49,11.36,13.51,14.48,21.76-16.12-4.12-27-4.77-41.75,3.94-4.3,2.53-8.37,5.49-12.55,8.21-6,5.46-17.85,19.73-25.17,21.23-5.93-.29-11.78-.75-17.68-1.36,1.42-.35,2.82-.85,4.21-1.3a186.54,186.54,0,0,1,50.34-40.43C807.76,994.12,823.23,992.43,828.27,986.21Z"/><path class="cls-8" d="M763.28,1041.35a7.51,7.51,0,0,1,.29-4.89c2.68-6.65,12.47-13.09,18.69-15.93,3-1.39,3.21-1.55,6.19-.41C782.47,1025.58,770.6,1039.85,763.28,1041.35Z"/><path class="cls-4" d="M784.81,954.72c8.51-2.28,16.62-4.38,25.45-5,29.54-2,72.36,6.57,100.77,14.58-9.62-.72-50.5,2.49-57.09,7.41C839.6,971.29,802.31,958.18,784.81,954.72Z"/><path class="cls-4" d="M924.28,1178.82c19.25,6.49,41.74,4.32,61.34,1l-.17,17.1-11.63,3.16c-17.68,3.18-35.69,5.88-52.89,11.1C922.5,1200.34,923.68,1189.75,924.28,1178.82Z"/><path class="cls-8" d="M853.94,971.74c6.59-4.92,47.47-8.13,57.09-7.41,8.11,1.65,16.38,3.06,24.32,5.38-8.53.68-17,2-25.48,3.3-7.65,1.4-11.53,4.07-17.16,9.35-1.46,2.16-1.41,2.08-.83,4.51,2.51,10.61,9.33,21,13,31.48,1.75,11.41,9.64,57.08,4.29,64.77-1.77-6.34-1.47-12.78-3.48-19-1.35-5-1.16-11.51-1.79-16.75-1.76-14.46-5.21-29-11.29-42.28C884.31,987,871.81,978.49,853.94,971.74Z"/><path class="cls-4" d="M849.83,984.24c14.38,6.41,25.14,15.32,31.63,30.15,5,11.31,12.82,54.42,8.54,65.46-7.79-15.34-21.69-31.48-33.89-43.49,3.82-15.19,4-31.85-3.67-46a24.61,24.61,0,0,1-2.17-4.65C850.12,985.24,850,984.74,849.83,984.24Z"/><path class="cls-7" d="M935.35,969.71c7.52,2.22,14.9,4.48,22.18,7.44-3,.6-6.67.79-8.88,3,.46,3.12,3.18,5.13,5.29,7.27l-2.68,1.2c.61,4.38,1.5,9-1.38,12.8-4,5.37-13.24,5.28-19.22,5.5-6.44-.31-14-.77-20-3.08-9.76-3.71-13.77-12.69-17.92-21.49,5.63-5.28,9.51-8,17.16-9.35C918.33,971.74,926.82,970.39,935.35,969.71Z"/><path class="cls-8" d="M935.35,969.71c7.52,2.22,14.9,4.48,22.18,7.44-3,.6-6.67.79-8.88,3,.46,3.12,3.18,5.13,5.29,7.27l-2.68,1.2c-2.41-1.16-4.79-4.16-7.18-5.74-11.26-7.44-20.77-9.74-34.21-9.88C918.33,971.74,926.82,970.39,935.35,969.71Z"/><path class="cls-4" d="M741.88,1276.68c9.8.07,20.85,4.15,30.59,6.1q4.34.88,8.7,1.59c2.92.48,5.84.89,8.77,1.26s5.85.66,8.79.92,5.88.44,8.83.58,5.89.21,8.84.24,5.9,0,8.85-.09,5.9-.23,8.84-.43,5.88-.46,8.81-.77c5.8,3.56,17.86,8.64,20.31,15,1.7,4.43-.73,8.94-2.36,13-3.1,2.91-5.75,4.59-10.09,4.85C826.58,1320.39,760.08,1293,741.88,1276.68Z"/><path class="cls-4" d="M369,1179.18c2.58-1.91,5.13-3.77,7.86-5.46l-.06.42,1.82.82c-1.1,6-2.68,11.79-.12,17.72-4.74,18.68-25,39.22-41.1,48.9-2.19,1.31-4.39,2.57-6.66,3.71-10.88-7-21.8-18.81-28.78-29.67,4.56-2.6,10.81-3.9,15.78-5.77C338,1202.23,353.88,1195,369,1179.18Z"/><path class="cls-7" d="M1020.63,1365.93c28.51,12.11,73.33,17.73,103,7.18,7.29-2.59,21.31-11.43,27.78-11.59l.59,2.47c-.56,7.72-1.85,11-6.43,17.08-53.33,20.61-81.26,19.63-134.09-1.65C1014.85,1375.2,1017.67,1370.44,1020.63,1365.93Z"/><path class="cls-4" d="M353,985.63c14.32,3.35,28.76,6,43.1,9.19-4.27,12-8.68,24-12.2,36.31-2,6.93-2.85,16.23-5.77,22.59L377,1052c-2,2.5-1.09,4.69-2.59,7.41-1.47-2.21-1.68-3.7-2-6.24s-.39-5.29-1.46-7.68c-6.54-14.7-27.83-15.43-40.85-20.66l-1.19-.5q1.1-2.64,2.31-5.24t2.52-5.14q1.31-2.54,2.72-5c.95-1.66,1.92-3.3,2.93-4.92s2.06-3.22,3.13-4.79,2.18-3.13,3.32-4.67,2.3-3,3.5-4.52S351.74,987.06,353,985.63Z"/><path class="cls-4" d="M651.31,1154.13c5,20.38,22.68,38.27,40.22,48.81,17.79,10.68,42,20.09,62.92,20.72-4.34,11.65-11.86,21.25-20.22,30.29-18.25-4.25-37.66-15.82-51.18-28.67A100.86,100.86,0,0,1,651.31,1154.13Z"/><path class="cls-11" d="M267.09,368.78c3.94,6.53,5.86,24.66,9,33.4-14.31,3.94-36.38,10.31-46.89,21.48-9.87,6.33-19.67,14.62-26.53,24.18-11.21,10.27-19.68,26.91-24,41.31-.4,1.33-.8,2.64-1.18,4-1.9-8.64-4.94-18.53-4.64-27.37,3-4.37,3.35-10.83,5.39-15.77,6.39-15.49,20.69-31,33.47-41.53,11.46-9.43,50.63-26.27,54-29.8a10.86,10.86,0,0,0,1.35-2.49,29.39,29.39,0,0,1-.22-5.93C267,369.74,267,369.27,267.09,368.78Z"/><path class="cls-12" d="M966.88,361.91c23.81,24.16,48.87,59.22,59.55,91.81a11.66,11.66,0,0,1-1,1.23c-2.38,2.24-8.54,1.56-11.78,1.68-5.89-5.13-8.39-7.22-10.63-14.79-.63-2.14,0-1.08-2-2.82-2.25.62-4.64,1.51-7,1.16-4.35-.65-12.35-21.95-15.54-26.19l-1-1.22c-3.14,1.32-5.46-1.2-6.66,1.88-2.64,6.81-2,15.3-4.61,22.46l-5.44-7c-1.84-6.67-7.83-14.54-11.39-20.63,3.81-8.44,7.24-16.95,10.56-25.59C962.31,376.56,964.75,369.27,966.88,361.91Z"/><path class="cls-11" d="M960,383.85c6.16,9.45,11.84,19.19,17.54,28.92-3.14,1.32-5.46-1.2-6.66,1.88-2.64,6.81-2,15.3-4.61,22.46l-5.44-7c-1.84-6.67-7.83-14.54-11.39-20.63C953.23,401,956.66,392.49,960,383.85Z"/><path class="cls-9" d="M482.56,214.63c2.85-1.36,3.58-2.33,6.67-1.39,1.51,2.93,3,7.57,5.39,9.7,3.26,9.65,8.09,20.43,3.45,30.48-4,8.68-10.7,12.62-16.72,19.17-11.58,3.49-24.82,2.85-36.84,2.87-10.74-1.61-21.13-5.26-31.34-8.88,1.81-.94,3.62-1.9,5.42-2.86,6.3-3.39,17.83-8.82,19.92-15.78C453.46,236.13,469.54,229.72,482.56,214.63Z"/><path class="cls-4" d="M863,1278c8.93-4.49,16-10.53,24.43-15.69l1.48.54a22.67,22.67,0,0,1,1.88,9.29c.44,10.18-.67,20.8-.82,31-.29,20,2.09,57.56-2.83,75.46a33,33,0,0,1-4.76,11.18c-.05.14-.1.28-.16.42-5.19,9.91-14.91,14.94-24.85,18.87q-.29-18-1.55-36t-3.53-35.89a54.22,54.22,0,0,0,6.1-.84c7-1.54,13.65-8.31,17.08-14.38,4.5-8,6.1-18.31,3.48-27.18C876.1,1285.27,871.3,1282.35,863,1278Z"/><path class="cls-5" d="M882.35,1389.84c-.22-5.09-2.31-10.93-.31-15.8a13.14,13.14,0,0,0,1.18-4.52,92.71,92.71,0,0,1,1.35-9.2,25.75,25.75,0,0,1,1.06,7.1l.8-4c-.35,4.76.56,10.35.68,15.23A33,33,0,0,1,882.35,1389.84Z"/><path class="cls-9" d="M388.56,91.3c.68-18.52,2.16-40.76,11-57.44,2.91-5.46,7.44-13.23,13.93-14.6,5-1,10.36,1.94,14.18,4.79,5,4,8.19,9,11.74,14.17a124.74,124.74,0,0,1,9.89,22.3l2,1.32c-8,10.85-17.12,18.18-27.64,26.39-3,2.34-7.36,4.86-9.79,7.59-6.36,3.94-16.3,12.13-23.39,13.46-.12-1.5-1-2-1.9-3.19C387.42,100.73,387.81,96.64,388.56,91.3Z"/><path class="cls-7" d="M402.4,41.33c3-3.46,6.17-7.31,10.64-8.78,5,.53,7,2.16,10.41,5.79,2.25,5.79,2.46,10.42-.14,16.18-1.61,3.56-5,7.16-8.87,8.2-2.87.77-5.33.75-7.89-.92-3.62-2.37-4.66-6.65-5.13-10.68A24.94,24.94,0,0,1,402.4,41.33Z"/><path class="cls-9" d="M388.56,91.3c.68-18.52,2.16-40.76,11-57.44,2.91-5.46,7.44-13.23,13.93-14.6,5-1,10.36,1.94,14.18,4.79a69.71,69.71,0,0,1,2.87,10.43c-1.7.38-2.66,0-4.31-.44a7.42,7.42,0,0,0-2.82,4.3c-3.36-3.63-5.4-5.26-10.41-5.79-4.47,1.47-7.62,5.32-10.64,8.78l-2.47-.4c-6.73,6-5.92,42.51-6.44,51.75-.13,2.3-.15,4.64-.33,6.93a12,12,0,0,1-1.85,5.13c-1.54-.11-.66.12-2.42-1.19C388.54,99.44,388.52,95.42,388.56,91.3Z"/><path class="cls-9" d="M439.45,38.22a124.74,124.74,0,0,1,9.89,22.3l2,1.32c-8,10.85-17.12,18.18-27.64,26.39-3,2.34-7.36,4.86-9.79,7.59-6.36,3.94-16.3,12.13-23.39,13.46-.12-1.5-1-2-1.9-3.19-1.15-5.36-.76-9.45,0-14.79,0,4.12,0,8.14.33,12.25,1.76,1.31.88,1.08,2.42,1.19,12.76-10.34,35.46-32.45,44.24-46C440.57,51,441.25,47.27,439.45,38.22Z"/><path class="cls-11" d="M949.42,409.44c3.56,6.09,9.55,14,11.39,20.63-.77,6.35.15,12.76-1.95,18.82-5,6.14-8.36,14.33-11.44,21.6,35.41,81.75,25,143.81,22.61,229.07-.35,12.56,3.81,25.78,2.67,38l-1.6-2.14c-.34-14.87-5-30-6.58-44.86-.59,4.4-1.29,8.8-1.6,13.23l-1.82,8.38c-3-13.89,3.62-29,1.42-43.68a9.21,9.21,0,0,1-.49-1.39c-.17-1,1.07-74.77,1.11-75a7.68,7.68,0,0,1,1.38-3.24c.75-15.76-3.43-33.25-6.23-48.78A269.26,269.26,0,0,0,938.64,475a109,109,0,0,0-16.35-30.17A145.75,145.75,0,0,0,949.42,409.44Z"/><path class="cls-6" d="M964.52,588.86c4,33.81,2.24,67.83,0,101.68-.59,4.4-1.29,8.8-1.6,13.23l-1.82,8.38c-3-13.89,3.62-29,1.42-43.68a9.21,9.21,0,0,1-.49-1.39c-.17-1,1.07-74.77,1.11-75A7.68,7.68,0,0,1,964.52,588.86Z"/><path class="cls-13" d="M209.77,1154.66c6.63,23.78,14,42.09,36.61,54.83,18,10.13,35,9.48,54.84,6.45l.7-.32c7,10.86,17.9,22.72,28.78,29.67-15.22,8.94-32.65,15.8-50.63,14.57-19.43-1.32-36.31-11.91-48.7-26.47C212.22,1210.88,207.4,1183.38,209.77,1154.66Z"/><path class="cls-4" d="M758.43,977.87c19.64-7.1,42.82-5,61.62,3.84a72.7,72.7,0,0,1,8.22,4.5c-5,6.22-20.51,7.91-28.12,12a186.54,186.54,0,0,0-50.34,40.43c-1.39.45-2.79,1-4.21,1.3-21.55-2.28-42.87,6.39-63.07,12.51,13.67-21.15,28-44.87,49.69-58.87l7.77-6C745.87,983.74,751.74,980.17,758.43,977.87Z"/><path class="cls-7" d="M758.43,977.87l1,0c9.28.27,16.32-3.34,25.21,1,1,1.42,2,2,1.67,3.88-1.15,6.31-9.83,11.48-15,14.51-7.74,4.52-15.58,8-23.07,13-.17.11-.36.2-.54.3l-8.1,6.38c-2.79-3.75-5-6.39-8.9-8.93-2.15-1.41-3.57-2.1-4.89-4.39.77-4,2.85-5.35,5.24-8.47l1.16-1.55,7.77-6C745.87,983.74,751.74,980.17,758.43,977.87Z"/><path class="cls-8" d="M732.22,993.63l7.77-6c2.59,1.36,5.17,2.67,7.86,3.85a116.35,116.35,0,0,0-12.27,12c2.17,2.55,4.31,5.32,6.68,7.69,5.13-4.11,16.71-14.59,23.33-14.48a6.35,6.35,0,0,1,1,.14c-5.48,5.83-13.66,6.32-18.84,13.73l-8.1,6.38c-2.79-3.75-5-6.39-8.9-8.93-2.15-1.41-3.57-2.1-4.89-4.39.77-4,2.85-5.35,5.24-8.47Z"/><path class="cls-8" d="M758.43,977.87l1,0c9.28.27,16.32-3.34,25.21,1,1,1.42,2,2,1.67,3.88-1.15,6.31-9.83,11.48-15,14.51-7.74,4.52-15.58,8-23.07,13-.17.11-.36.2-.54.3,5.18-7.41,13.36-7.9,18.84-13.73,5.59-2.71,13.07-6.38,15.68-12.41.63-1.49.28-1.24-.36-3.1a7.62,7.62,0,0,0-2.74-1.19c-9.26-2.39-23.51,6.8-31.28,11.3-2.69-1.18-5.27-2.49-7.86-3.85C745.87,983.74,751.74,980.17,758.43,977.87Z"/><path class="cls-14" d="M108.61,684.69c4.35-15,3.16-34.16,5.89-50.17,1.28,12.79.07,26.56,2.88,39,1.89,25,3.47,50.61,2.28,75.73l-2.48,28.25c-.94,22.12-1.22,44.33-3.56,66.37-7.8,23.33-15.25,45.92-38.74,57.79-6.77,3.43-15.2,6.73-22.71,7.76-7,1-16.74-.27-23.12,2.24a102.19,102.19,0,0,1-10.41-15,70.27,70.27,0,0,0,34.25-9.46c35.94-20.91,39.84-49.86,49.7-86.09C106.38,760.75,108.11,725.36,108.61,684.69Z"/><path class="cls-7" d="M108.61,684.69c4.35-15,3.16-34.16,5.89-50.17,1.28,12.79.07,26.56,2.88,39,1.89,25,3.47,50.61,2.28,75.73l-2.48,28.25L114,794l0-1.44c-.08-17.15,3.18-34.2,3.38-51.39.18-14.93.46-30-.47-44.95-.41-6.51-2.2-12.62-2.14-19.14l-1.36-1.3c-.52,8.32-2.35,16.58-2.66,24.83-1.14,30,.87,61.25-4.83,90.92-.45,2.31-.63,4.62-1,6.94-.31,1.87-.23,1.27-1.54,3.11l-.72-.37C106.38,760.75,108.11,725.36,108.61,684.69Z"/><path class="cls-7" d="M175.54,409.56A184.28,184.28,0,0,1,189.23,365c36.65-81.27,96.24-128.53,178.33-159.23.9,7.71,1.2,15.51,1.65,23.25-2.27,4.3-11,6.34-15.76,8.19-27.59,10.68-42.95,17.76-67.29,35.31-38.8,28-67,61.43-90.3,102.92-3.89,6.9-14.38,30.86-18.78,34.63Z"/><path class="cls-8" d="M1018.92,1213.08c4.49,9.33,4.83,19.52,3.92,29.66-1.72,7.11-3,12.62-9.71,16.54-10.24,6-75.85,17.58-89.58,17.36a40.06,40.06,0,0,1-5.23-2.54c-8.76-5.33-11.51-15.94-13.82-25.21,1.76-5.92,3.65-11.67,7-16.91l.94,1.26c2.18.57,92.28-14.63,101.41-16.63C1017.15,1215.88,1017.13,1215.83,1018.92,1213.08Z"/><path class="cls-4" d="M1022.84,1242.74c-1.72,7.11-3,12.62-9.71,16.54-10.24,6-75.85,17.58-89.58,17.36l1.83-1c1.1-2.36-2.82-7-2.34-10.87C930.67,1257.69,1005.32,1249.62,1022.84,1242.74Z"/><path class="cls-13" d="M459.74,1448.67c33,22.24,55.1,28.61,94.47,32.92-2.37,27.72-5.79,54.91-9.51,82.45-15.49,8.74-31.52,13.5-48.79,17.5,2.22-20.19,3.79-61.23-.47-80.54a57.55,57.55,0,0,0-9.87-22.07c-7.86-10.45-18.91-17.32-25.26-29.16Z"/><path class="cls-9" d="M451.29,61.84q4.51,8.41,8.38,17.15t7.06,17.73c1.38,3.58,2.92,7.18,4,10.85a107.83,107.83,0,0,0,4.16,11.54c-9.9,17.28-24.19,28.81-40.73,39.43C431,160.61,423.93,164,421.69,167c-6.65,3.58-13.38,7.64-20.44,10.34a30.94,30.94,0,0,0-5.56-1.37l-2.44,1.26c-2.21,1.22-3.63,2-6.17,2.11-2.65-12.89-.82-53.14.3-67.29l3.09-2.74c7.09-1.33,17-9.52,23.39-13.46,2.43-2.73,6.8-5.25,9.79-7.59C434.17,80,443.34,72.69,451.29,61.84Z"/><path class="cls-7" d="M413.86,95.82a14.41,14.41,0,0,1-.41,11.12c-2.91,6.44-8.39,10.62-9.89,17.81,0,.22-.11.45-.16.67,3.21-2.23,4-3.25,8-3.36,2.2,1.75,3.1,2.81,3.58,5.67.64,3.78.45,9-1.79,12.27-.92,1.33-1.69,1.31-3.13,1.84-2.59-.93-4.85-1.69-6.12-4.41-1.56-3.34-1.06-7.43-.87-11-1.29,1.4-.93.78-1.68,2.4-1.83,4-2.92,7.28-7.05,9.24l-1.76-.87c-4.67-6.56-4.16-17.39-5.2-25.18l3.09-2.74C397.56,108,407.5,99.76,413.86,95.82Z"/><path class="cls-1" d="M466.73,96.72c1.38,3.58,2.92,7.18,4,10.85a107.83,107.83,0,0,0,4.16,11.54c-9.9,17.28-24.19,28.81-40.73,39.43C431,160.61,423.93,164,421.69,167c-6.65,3.58-13.38,7.64-20.44,10.34a30.94,30.94,0,0,0-5.56-1.37l-2.44,1.26c5.82-15.51,32.82-29.94,45.31-41.74A123.66,123.66,0,0,0,466.73,96.72Z"/><path class="cls-1" d="M470.74,107.57a107.83,107.83,0,0,0,4.16,11.54c-9.9,17.28-24.19,28.81-40.73,39.43C431,160.61,423.93,164,421.69,167c-6.65,3.58-13.38,7.64-20.44,10.34a30.94,30.94,0,0,0-5.56-1.37c8.39-11.32,25.06-15.82,37-22.49q3.36-1.83,6.57-3.89t6.3-4.32q3.07-2.27,6-4.72t5.67-5.12C465.37,127.51,470.55,119.08,470.74,107.57Z"/><path class="cls-7" d="M119.66,749.29l1.62,5.52,1.83.72,2.89-2.06c-.14,1.5-.25,3-.35,4.52s-.16,3-.21,4.53-.09,3-.1,4.53,0,3,0,4.54.09,3,.16,4.53.17,3,.28,4.53.25,3,.41,4.52.33,3,.53,4.5.42,3,.65,4.49.5,3,.79,4.47.58,3,.9,4.45.66,2.95,1,4.42.75,2.92,1.14,4.38.83,2.91,1.27,4.36.91,2.88,1.39,4.32,1,2.86,1.5,4.28l4.92,11c-3.71,10.49,4.37,30.3,5,42.47-9.44,22.89-23,49.73-46.19,61.2a16.16,16.16,0,0,0,0-5.24l-1.7-1a30.91,30.91,0,0,1-6.45.24l-1.76-.18c-25.27.29-41.26-4-60.1-21.61,6.38-2.51,16.12-1.27,23.12-2.24,7.51-1,15.94-4.33,22.71-7.76,23.49-11.87,30.94-34.46,38.74-57.79,2.34-22,2.62-44.25,3.56-66.37Z"/><path class="cls-7" d="M119.66,749.29l1.62,5.52,1.83.72,2.89-2.06c-.14,1.5-.25,3-.35,4.52s-.16,3-.21,4.53-.09,3-.1,4.53,0,3,0,4.54.09,3,.16,4.53.17,3,.28,4.53.25,3,.41,4.52.33,3,.53,4.5.42,3,.65,4.49.5,3,.79,4.47.58,3,.9,4.45.66,2.95,1,4.42.75,2.92,1.14,4.38.83,2.91,1.27,4.36.91,2.88,1.39,4.32,1,2.86,1.5,4.28l-.48,4.35-1.27.46a88.66,88.66,0,0,1-6.83-14.44c-1.21-3.09-1.26-9.09-3.81-11.23a12.68,12.68,0,0,0-1.72,5.59c-.35,2.27-.5,3.9-1.83,5.82-2.21-4.52-.33-13.13-.63-18.35-.15,12.49,2,36.35-5.22,46.87,2.34-22,2.62-44.25,3.56-66.37Z"/><path class="cls-13" d="M900.7,1141.49c7.35,29.76,8.57,59.33-7.86,86.34-.36.61-.73,1.2-1.1,1.79s-.76,1.18-1.16,1.77l-1.19,1.72c-.4.58-.82,1.14-1.24,1.7s-.85,1.12-1.28,1.67-.87,1.1-1.33,1.63-.9,1.08-1.36,1.61-.93,1-1.4,1.56l-1.44,1.53c-.49.51-1,1-1.49,1.5s-1,1-1.52,1.45-1,1-1.55,1.42l-1.59,1.37c-.54.45-1.08.9-1.63,1.33s-1.1.88-1.66,1.3-1.12.84-1.69,1.25l-1.72,1.21c-.58.39-1.16.78-1.75,1.16s-1.18.76-1.78,1.12-1.2.73-1.81,1.08-1.22.69-1.84,1-1.23.66-1.86,1-1.25.63-1.89.94l-1.9.88c-.64.29-1.29.56-1.94.83s-1.29.54-1.94.79-1.31.5-2,.74-1.32.47-2,.69l-2,.64-2,.58c-.67.19-1.35.37-2,.54s-1.37.33-2,.48c-33.81,7.87-73-2.3-105.48-12.16,8.36-9,15.88-18.64,20.22-30.29l.61.09c2,3.08,3.53,3.17,7.12,4,28.38,6.72,78.68,4.57,104.28-11.51,22.66-14.23,28-46.32,32.68-70.13l.15,2C900.31,1146.14,900.38,1143.7,900.7,1141.49Z"/><path class="cls-15" d="M514.36,179.26l1-1.83c11.52-2.61,24.37-3,36.19-3.53C615.76,171,688.65,184,743.42,218.83c4.17,2.65,11.8,6.89,14.14,11.21-51.3-11.94-67.8-6.56-114.51,14.27-8.87,4-18.3,10-27.46,12.72a247.61,247.61,0,0,1,38.1-27.68c-22.74-7.49-103.64-20.93-124.56-11.43l-5.27-13.7C520.36,196,517.3,187.7,514.36,179.26Z"/><path class="cls-9" d="M523.86,204.22q3.39-.66,6.78-1.25c2.26-.4,4.53-.76,6.8-1.11s4.55-.66,6.83-1,4.55-.56,6.84-.81,4.57-.46,6.86-.66,4.58-.37,6.87-.51,4.58-.27,6.88-.37,4.59-.17,6.89-.22,4.59-.07,6.89-.07,4.59,0,6.89.08,4.59.13,6.89.23,4.59.23,6.88.38,4.58.32,6.87.52,4.58.43,6.86.68,4.56.52,6.84.82,4.55.62,6.83,1c19.43,3.12,38.71,8.24,58,12.3-6.82,2.22-13.71,4.13-20.3,7-5.71,2.49-11.7,6.21-17.54,8.12-22.74-7.49-103.64-20.93-124.56-11.43Z"/><path class="cls-9" d="M474.9,119.11c6.79,17.52,14.57,35,19.3,53.2,4.29,18.64-4.1,21.61-3,30.85-1.38,4.24-5.68,8.12-8.6,11.47-13,15.09-29.1,21.5-44.05,33.31-7.26,3.53-14.5,6.91-22.07,9.73-8.42,3.14-21.58,5.55-28.73,10.58l0-16.69c-.55-14-1.45-28-1.21-42.09l-1-22.84,15.77-9.32c7.06-2.7,13.79-6.76,20.44-10.34,2.24-2.95,9.26-6.36,12.48-8.43C450.71,147.92,465,136.39,474.9,119.11Z"/><path class="cls-7" d="M413.36,201.93c.44,0,.87,0,1.3,0a10.35,10.35,0,0,1,8.31,4.68,11,11,0,0,1,1.25,8.35c-1.55,7.23-4.8,10.19-10.91,13.95a13.4,13.4,0,0,1-3-.15,8.72,8.72,0,0,1-5.62-4.74c-2-3.89-1.66-8.31-.45-12.38C405.83,206.22,408.46,204.49,413.36,201.93Z"/><path class="cls-7" d="M421.69,167c-.4,13.33-22.47,23.91-29.08,35.07-2.25,3.79-3.15,9.1-4.32,13.37-.69-1.95-1.24-3.95-1.83-5.94l-1-22.84,15.77-9.32C408.31,174.61,415,170.55,421.69,167Z"/><path class="cls-1" d="M494.2,172.31c4.29,18.64-4.1,21.61-3,30.85-1.38,4.24-5.68,8.12-8.6,11.47-13,15.09-29.1,21.5-44.05,33.31-7.26,3.53-14.5,6.91-22.07,9.73-8.42,3.14-21.58,5.55-28.73,10.58l0-16.69,1.57,11.73c8.08-4.31,14.75-10.11,22.25-15.24,18.33-12.55,37.92-23.57,53.89-39.22,4.82-4.72,9.8-9.88,13.46-15.58,3-4.62,5.4-11.44,9.17-15.25a6.1,6.1,0,0,1,2.32-1.52c2,2.11,1.46,5.19,2.36,8l.58-.13c-.55-3.43-1.26-6.63.05-10C493.59,173.67,493.91,173,494.2,172.31Z"/><path class="cls-9" d="M150.89,447.77l1.17-1.42c2.58,8.33,1.37,19.93,2.17,28.79q1.83,18.62,4.92,37.06c.55,3.46,1.84,5.33,4.12,7.94.41,9.52-2.57,19.31-3.74,28.78-1.59,12.78-2.69,25.69-3.76,38.52-2.3,27.59.2,69.33-6.15,94.27-3,11.67-8.92,22.71-13.26,33.94A222.14,222.14,0,0,0,126,753.47l-2.89,2.06-1.83-.72-1.62-5.52c1.19-25.12-.39-50.69-2.28-75.73-2.81-12.48-1.6-26.25-2.88-39-2.73,16-1.54,35.17-5.89,50.17-.21-42.65-.52-89.73,8.71-131.6.52-9.84,3.43-20.24,5.94-29.76.64-3.86,1.91-7.8,2.85-11.61C131.09,489.23,141.31,468.55,150.89,447.77Z"/><path class="cls-13" d="M150.89,447.77c3.89,28.74-9.39,48.7-18.47,74.63.13-4.38,1.15-10.85-1.11-14.62l-1.73-.07-3.47,4C131.09,489.23,141.31,468.55,150.89,447.77Z"/><path class="cls-16" d="M126.11,511.72l3.47-4,1.73.07c2.26,3.77,1.24,10.24,1.11,14.62-2.12,8.16-4,16.45-6.38,24.54-.87,4-1.38,8.79-2.78,12.62a554.7,554.7,0,0,0-5.72,67.87c-.3,15.36.35,30.8-.16,46.13-2.81-12.48-1.6-26.25-2.88-39-2.73,16-1.54,35.17-5.89,50.17-.21-42.65-.52-89.73,8.71-131.6.52-9.84,3.43-20.24,5.94-29.76C123.9,519.47,125.17,515.53,126.11,511.72Z"/><path class="cls-7" d="M209.77,1154.66c3.62-25,12.75-46.11,30.45-64.41,21-21.68,46.53-30.25,76.22-30.66l1.93,1.77c-1.65,6.61-14.71,15.64-19.16,21.73-27.56,37.73-18.16,94.44,2,132.85-19.83,3-36.84,3.68-54.84-6.45C223.73,1196.75,216.4,1178.44,209.77,1154.66Z"/><path class="cls-13" d="M977.52,412.77l1,1.22c3.19,4.24,11.19,25.54,15.54,26.19,2.35.35,4.74-.54,7-1.16,2,1.74,1.41.68,2,2.82,2.24,7.57,4.74,9.66,10.63,14.79,3.24-.12,9.4.56,11.78-1.68a11.66,11.66,0,0,0,1-1.23c3.12,7.22,6.62,14.49,8.78,22.06,7.53,19.77,22.06,69.89,21.43,90.45,8.21,44.18,6.53,90.45,11,135.11-3.19-7.78-8-15.2-11.85-22.69a170.36,170.36,0,0,1-16-46.42,12.76,12.76,0,0,1-5-6.2c-3.72-8.57-5.46-18.29-7.73-27.33-4.46-17.78-8.51-35.92-14.4-53.29-9.91-29.26-23.65-54.88-40.21-80.82-3.27-5.12-5.83-13.22-10.37-17.11l-2,1.77-1.12-.36c2.1-6.06,1.18-12.47,1.95-18.82l5.44,7c2.66-7.16,2-15.65,4.61-22.46C972.06,411.57,974.38,414.09,977.52,412.77Z"/><path class="cls-7" d="M958.86,448.89c2.1-6.06,1.18-12.47,1.95-18.82l5.44,7c7.9,10.81,16.86,21.66,23.75,33.11,29.75,49.42,39.42,106.24,49.77,162a12.76,12.76,0,0,1-5-6.2c-3.72-8.57-5.46-18.29-7.73-27.33-4.46-17.78-8.51-35.92-14.4-53.29-9.91-29.26-23.65-54.88-40.21-80.82-3.27-5.12-5.83-13.22-10.37-17.11l-2,1.77Z"/><path class="cls-16" d="M964.52,690.54c1.6,14.82,6.24,30,6.58,44.86-6.61,7.67-4.47,28.57-6.43,38.85-1.16,30.17-11.55,63.32-24.32,90.53,12.32,30.17,17.34,60.23,16.3,92.74-37-13.08-94.25-23.48-133.6-25.06,13.53-7.05,26.53-17.08,38.11-27C909,864.62,937.54,810.92,953,750.78c3.22-12.5,7.09-25.76,8.08-38.63l1.82-8.38C963.23,699.34,963.93,694.94,964.52,690.54Z"/><path class="cls-11" d="M964.52,690.54c1.6,14.82,6.24,30,6.58,44.86-6.61,7.67-4.47,28.57-6.43,38.85-.38-2.43-.4-5.24-1.79-7.3a31.45,31.45,0,0,1-2,7.36c-7.87-14,13.77-53,2.09-70.54C963.23,699.34,963.93,694.94,964.52,690.54Z"/><path class="cls-4" d="M345,1555.72c36.91,29.67,94.67,32.4,139.55,27.56q5.22-.57,10.42-1.2l1-.54c17.27-4,33.3-8.76,48.79-17.5-4.22,24.32-8,50-29.72,65.19-26.33,18.42-69.65,20.82-100.24,15.06-20-3.76-37.9-11.23-49.69-28.73-7.88-11.7-12.82-25.27-15.46-39.06C347.72,1569.59,346.21,1562.77,345,1555.72Z"/><path class="cls-8" d="M345,1555.72c36.91,29.67,94.67,32.4,139.55,27.56q5.22-.57,10.42-1.2c-2.4,11.19-6,20.11-15.31,27.35-16.56,12.89-43.33,14.07-63.36,11.43-17.62-2.32-41.1-7-52.41-22.12-5.09-6.77-8.37-14.74-13.62-21.46-.2-.26-.42-.52-.63-.78C347.72,1569.59,346.21,1562.77,345,1555.72Z"/><path class="cls-11" d="M1105,887.74c6.31,4.12,13.31,5.45,20.76,5.83,8.78,51.51,5.13,104-26,147.67-18.16,25.46-41.67,44.23-68.66,59.55-1.86-36.53-5.46-69-22.39-102,2.11,1.08,4.19,2.31,6.22,3.53,5.17,3.08,7.6,3.49,13.65,2.79,18.84-2.2,36-16.56,47.31-31C1090.93,954.78,1108,912.16,1105,887.74Z"/><path class="cls-4" d="M956.25,1285.48c18.81-2.41,36.88-6.6,55.32-11,0,5.72.2,11.48,0,17.2.87,21.1,1.73,54.88-10.3,72.63-15.28,22.55-82.73,32.26-110,38.18,3.07-5,5.86-9.89,7.52-15.6,7.69-26.51,5.67-75.72,3.44-103.94l.94-1.39a35.62,35.62,0,0,1,5,2.86c4.63,3,9.13,4.75,14.25,6.67a5,5,0,0,1,.59.34C934,1290.22,945.37,1287.77,956.25,1285.48Z"/><path class="cls-5" d="M956.25,1285.48c18.81-2.41,36.88-6.6,55.32-11,0,5.72.2,11.48,0,17.2a51.64,51.64,0,0,0-3.92-9.94l-.12.45c-.42-.32-.82-.68-1.26-1-3.46-2.28-6.64-1.47-10.35-.42-9.12,2.58-16,5.28-25.73,5.85l.87,1.18,0,2.27c.7,0,1.4.08,2.1.14a11.31,11.31,0,0,1,8,3.69c3,3.56,2.79,8.88,1.85,13.13-1.87,8.43-7.07,15.2-13.52,20.71l-3.56.72c4.26-5.35,8.79-11,11.19-17.44,1.39-3.75,2-8.13,0-11.81-2.15-3.87-6.82-6.46-11.09-7.16-4-.66-6.54.11-9.84,2.32-.42,1.46-.74,2.86-1,4.36l-.32,1.76-1.63,1c-3.4-.66-6.22-4.38-8.85-6.59-4-.85-7-.3-11,.5-2.81-2-7-2.91-10.3-4C934,1290.22,945.37,1287.77,956.25,1285.48Z"/><path class="cls-7" d="M933.32,1295.48c4-.8,7-1.35,11-.5,2.63,2.21,5.45,5.93,8.85,6.59l1.63-1,.32-1.76c.29-1.5.61-2.9,1-4.36,3.3-2.21,5.85-3,9.84-2.32,4.27.7,8.94,3.29,11.09,7.16,2,3.68,1.38,8.06,0,11.81-2.4,6.48-6.93,12.09-11.19,17.44-3.08,2.64-5.7,5.19-9.58,6.52-4.44-.09-8-1.67-11.68-4.11-7.18-4.71-15.57-12.86-16.86-21.81C927,1303.91,930.37,1299.38,933.32,1295.48Z"/><path class="cls-4" d="M829.65,1554.85l1.06-.42c-.88,24.21-10.53,57.82-29,74.51-21.57,19.54-58,23.17-85.73,21.23-24.26-1.69-56.36-6.88-73.4-26.24-11.69-13.29-17.33-34.13-21.22-51,14.08,4.92,27.25,9.78,41.89,13.12l1.11,0c8.11,1.8,17.66,2,26,2.44,39.1,2.25,73.25-2.88,110-16.06l1-.82C811.24,1566.68,820.92,1561.65,829.65,1554.85Z"/><path class="cls-8" d="M664.4,1586c8.11,1.8,17.66,2,26,2.44,39.1,2.25,73.25-2.88,110-16.06,1.47,11.21-3.44,25.16-10.2,33.94-9.25,12-23.41,16.36-37.87,17.9-20.83,2.2-54.19.94-70.93-13.46-8-6.85-10.76-18.41-18.11-24.74Z"/><path class="cls-13" d="M676.71,1244.93c36.8,29.15,52.58,50.53,98.68,71.39A288.69,288.69,0,0,0,808,1328.41c4.35,1.37,9.41,2.32,13.56,4.1a96,96,0,0,1,11.76,2.48c2.89,23.49,5,46.7,6,70.34.72,49.34,1.24,100.53-8.64,149.1l-1.06.42c-8.73,6.8-18.41,11.83-28.29,16.71,7-52.71,7.48-175.46-22.34-220.1-9.36-14-26.4-22.72-39.48-33C722.65,1305.22,680.21,1264.09,676.71,1244.93Z"/><path class="cls-10" d="M821.57,1332.51a96,96,0,0,1,11.76,2.48c2.89,23.49,5,46.7,6,70.34.72,49.34,1.24,100.53-8.64,149.1l-1.06.42-3.69-2.24c-.48-3.63.46-6.17,1.48-9.65,4.52-15.44,4.37-33.73,5.8-49.8l1,13.17h1a175.12,175.12,0,0,0-.49-19.3l-.15.7a107.52,107.52,0,0,1,0-23.79l.59,14.43c5-8.51.57-58.4,2.34-73.05a18,18,0,0,0-.75-4c-.3,2.69-.36,3.91-1.55,6.4-.16-15.54-1.27-49.65-5.7-63.47-1.29-4-3.28-7.37-7.24-9.18-.62-.29-1.26-.55-1.9-.82Z"/><path class="cls-7" d="M971.1,735.4l1.6,2.14c6.27,26,17.21,49.76,26.36,74.74,21.57,58.87,27.82,119.85,4.9,179.33-13.08-17.12-27.33-26.47-47.31-34.09,1-32.51-4-62.57-16.3-92.74,12.77-27.21,23.16-60.36,24.32-90.53C966.63,764,964.49,743.07,971.1,735.4Z"/><path class="cls-8" d="M316.44,1059.59c21.62,3.33,39.2,12.71,52.14,30.65,12.12,16.79,18.3,38.82,17.77,59.45-1,9.85-12.93,20.27-17.39,29.49-15.08,15.84-31,23-51.26,30.67-5,1.87-11.22,3.17-15.78,5.77l-.7.32c-20.17-38.41-29.57-95.12-2-132.85,4.45-6.09,17.51-15.12,19.16-21.73Z"/><path class="cls-11" d="M298.24,390.93c8.72,5.14,16.39,11.95,25.08,17.24C346,422,377.06,425.94,403.09,426.89c84.77,3.11,207.78-48.47,274.45-98.8,22.53-17,40.52-38.45,61-57.56-6,18-12.83,35.67-22.65,52-24.19,40.18-66.6,70.83-108.14,91.36-70.58,34.89-167.56,53-243.4,26.88-15.89-5.47-46-19.21-55.85-33.2l.29-.33C309,403.65,300.63,394.26,298.24,390.93Z"/><path class="cls-8" d="M651.31,1154.13c-.53-21.55,3.4-43.67,15.54-61.88,10.41-15.63,27.87-27.58,46.36-31.2a6.34,6.34,0,0,0,.31.93c1.44,2.78,17.65,13.38,21.51,17.43,30.24,31.78,35.8,81.54,26.79,122.69q-1.2,5.55-2.9,11t-3.86,10.68l-.61-.09c-20.94-.63-45.13-10-62.92-20.72C674,1192.4,656.35,1174.51,651.31,1154.13Z"/><path class="cls-13" d="M658,407.62c-11.82,24.72-88.26,67.66-114.09,76.91-18.54,6.63-37.78,10.16-57.24,12.74-64.14,8.53-123.19-.66-182-26.93-13.89,11-27,12.87-44.13,13.31-7.83,1.86-15.56,3.75-23,6.81-10.75,4.42-41.18,22-50.72,22a191,191,0,0,1,7.86-19.83c20-42.66,49-60.67,91.71-76.05,29.12,26,58.08,41.14,96.15,50.05,72.32,16.91,159.93-.68,226.42-31.46C625.88,427.28,642.06,417.44,658,407.62Z"/><path class="cls-8" d="M904.84,1018.35c-3.63-10.47-10.45-20.87-13-31.48-.58-2.43-.63-2.35.83-4.51,4.15,8.8,8.16,17.78,17.92,21.49,6.06,2.31,13.59,2.77,20,3.08,6-.22,15.18-.13,19.22-5.5,2.88-3.84,2-8.42,1.38-12.8l2.68-1.2c15.44,10.58,27.34,21.6,36.45,38.16,4.18,7.59,11.36,33.86,15.21,36.09,2.18-1.59,2.11-1.93,2.92-4.55,1.92,11.44,3.84,23.58,3.88,35.2,2.28,14.35,4.19,45-4.84,57.53-8.18,11.33-27.08,14.62-40.14,16.23-10.75,1.33-31.48,3.11-40.16-4.55-5.84-5.15-8.22-22.41-10.54-30.22-2-7.29-5.45-14.31-7.64-21.6-4.42-14.66-3.36-30.47-3.43-45.63,2,6.25,1.71,12.69,3.48,19C914.48,1075.43,906.59,1029.76,904.84,1018.35Z"/><path class="cls-7" d="M936.46,1010.76c4.73-.09,10.2-.62,13.59,3.45,2.09,2.52,2.4,7.33,1.5,10.39a8.43,8.43,0,0,1-5.11,5.45c-4.44,1.73-9.77.73-13.88-1.42-2.95-1.55-5.56-4.11-6.19-7.53s1-5.55,2.94-8Z"/><path class="cls-4" d="M916.72,1131.32a21.79,21.79,0,0,0,3,1.46c17,6.77,54.8,6.31,71.49-1.24,17.87-8.07,4.5-47.2,10.24-62.87l3.11.18c2.76,11.9,4.2,24.51,6.47,36.59,1.49-3.75,1.11-9,1.33-13.11,2.28,14.35,4.19,45-4.84,57.53-8.18,11.33-27.08,14.62-40.14,16.23-10.75,1.33-31.48,3.11-40.16-4.55C921.42,1156.39,919,1139.13,916.72,1131.32Z"/><path class="cls-7" d="M149.82,318.43c-5.56-24.78-1.68-65.7,3.35-90.16,5.47-26.62,17.19-67.27,42-82.77,7.45-4.66,15.08-5.51,23.52-3.17,31,8.6,63,47.71,78.71,74.16-15.31,12.11-31.69,23-47.16,35l-5.29,4.83c-14.88,14.19-29.94,28.89-41.42,46-7.65,11.42-13.73,23.93-21.41,35.24-2.46-8.94-5.88-17.71-8.92-26.47L171.78,313l-1.28.14C163.12,314,156.77,317.36,149.82,318.43Z"/><path class="cls-8" d="M181.79,226.78c3.31-7.85,6.41-17.2,14.9-20.84,4.18-1.8,8.68-1.27,12.77.49,16.34,7.07,32,30.29,40.73,45l-5.29,4.83c-14.88,14.19-29.94,28.89-41.42,46-7.65,11.42-13.73,23.93-21.41,35.24-2.46-8.94-5.88-17.71-8.92-26.47C169.62,282.84,171.33,253.43,181.79,226.78Z"/><path class="cls-11" d="M1152,1364c2.35,24,4.18,42.37-6.71,64.71-3.18,6.51-8.08,13-10.52,19.71-13.33,22.09-53.92,37.83-77.71,43.62-34.93,8.51-74.83,4.45-105.77-14.49-12.76-7.81-23.33-18.44-34.58-28.18-4.71-6.81-18.78-23.16-19.58-30.82,20.24-2.88,40.33-7.72,60.33-11.94,20.94-5.54,37.88-12.42,54-27.18,52.83,21.28,80.76,22.26,134.09,1.65C1150.17,1375,1151.46,1371.71,1152,1364Z"/><path class="cls-16" d="M1011.5,1379.42c52.83,21.28,80.76,22.26,134.09,1.65-16.24,30.16-33.46,46.91-67,57-30.2,9-64.2,7.79-92.12-7.64-9.92-5.49-22.88-14.07-28.94-23.79C978.42,1401.06,995.36,1394.18,1011.5,1379.42Z"/><path class="cls-7" d="M813.34,1024.9c38.14,25.88,74.08,72.52,87.36,116.59-.32,2.21-.39,4.65-1.41,6.64l-.15-2c-4.63,23.81-10,55.9-32.68,70.13-25.6,16.08-75.9,18.23-104.28,11.51-3.59-.84-5.13-.93-7.12-4q2.16-5.25,3.86-10.68t2.9-11c9-41.15,3.45-90.91-26.79-122.69-3.86-4.05-20.07-14.65-21.51-17.43a6.34,6.34,0,0,1-.31-.93c21.73-4.92,42.11-4.84,63.6,1,6.4,1.74,12.91,4.56,19.31,6,21,9.84,34.38,19.1,53.52,31.8-5.59-8.38-13.61-22.18-22.52-27.39-10.4-11.55-27.35-21.7-42.07-26.45C794.29,1038.78,803.42,1031.13,813.34,1024.9Z"/><path class="cls-13" d="M412,996.89c105.22,13.93,203.51,10.2,306.41-16.73-22.58,21.6-41.14,42.59-53.56,71.65-4.86,11.39-7.88,23.19-14.2,33.93-2.08,3.56-4,7.24-6.3,10.66l-1-.07c-15.59-1.27-30.87-7.48-46.48-9.59-69.43-9.36-134.57-6.25-201,17.09l-2.33-6.25c-.43-.7-.85-1.41-1.25-2.13-7.24-12.94,5-46.82,9.09-61.12C404.36,1021.71,408.28,1009.32,412,996.89Z"/><path class="cls-10" d="M401.37,1034.33a20.9,20.9,0,0,1,1.84,8.06l.43-2.07c-.3,12.61-5.34,25.83-7.46,38.32-1.05,6.21.28,13.41-2.65,18.94-.43-.7-.85-1.41-1.25-2.13C385,1082.51,397.3,1048.63,401.37,1034.33Z"/><path class="cls-13" d="M615.59,257c9.16-2.71,18.59-8.76,27.46-12.72,46.71-20.83,63.21-26.21,114.51-14.27-7.24,13-13.1,26.85-19,40.49-20.46,19.11-38.45,40.55-61,57.56C610.87,378.42,487.86,430,403.09,426.89c-26-.95-57.09-4.93-79.77-18.72-8.69-5.29-16.36-12.1-25.08-17.24,2.39,3.33,10.71,12.72,10.53,16.28l-.29.33c-16.7-14.11-27.56-34.37-40.08-52,2.25,5.61,8.81,17.91,6.52,23.52l-2.5-.1c-4.07-5.17-4.09-20.15-4.94-27.09,9,7.37,12.11,10.44,23.49,14.39,14.71,5.11,30.79,10,46.24,11.82,47,5.49,96.09-13.17,137.51-33.61,25.5-8.84,48.46-27.29,71.16-41.61C569.69,287.87,593.38,274.59,615.59,257Z"/><path class="cls-7" d="M689.13,242.17c3.55-.44,7.23-.89,10.73,0a13,13,0,0,1,8.24,6.15c1.88,3.32,1.8,7.11.74,10.68-1.87,6.33-6.46,9-11.92,12.11a38.91,38.91,0,0,1-6.37.69c-3.57,0-8.68-2.41-10.78-5.36a13.45,13.45,0,0,1-2-11.37C679.16,248.77,684,245.49,689.13,242.17Z"/><path class="cls-7" d="M561.36,300.69a11.26,11.26,0,0,1,3.73,1c5.48,2.12,10.3,4.18,12.71,9.91,1.86,4.45,1.19,9.76-.94,14-3.33,6.63-8.35,9.78-15.23,12l-1.15.05c-4.78.11-11.34-.69-14.69-4.63a10.68,10.68,0,0,1-2.49-9.36C545.07,312.73,553.11,306.7,561.36,300.69Z"/><path class="cls-7" d="M652.93,258.72a27.68,27.68,0,0,1,7,2.07c4,1.92,7.73,5.3,9.23,9.54,1.63,4.59.58,9.8-1.66,14-4.55,8.54-11.17,11.79-20,14.68a28.29,28.29,0,0,1-10.12-2.68,14.72,14.72,0,0,1-7.87-9c-1.43-4.51.37-10.06,2.71-13.93C637,265.45,644.17,261.14,652.93,258.72Z"/><path class="cls-11" d="M861.87,1425.14a266,266,0,0,1,35.28-6.6c.8,7.66,14.87,24,19.58,30.82,11.25,9.74,21.82,20.37,34.58,28.18,30.94,18.94,70.84,23,105.77,14.49,23.79-5.79,64.38-21.53,77.71-43.62,8.11-8.38,13.63-17,18.85-27.4-1.18,17.26-2.91,33.56-7.14,50.4-11.79,48.13-40,90.38-82.71,116.3-45.36,27.51-102.2,28.53-152.55,16.07-23.64-5.86-45-15.16-66.71-25.91,4.25-17.7,9.3-37.4,9.61-55.61,4.55-11.41,4.13-74.36,3.2-89.43-.05-2.85-.33-4.37,1.12-6.95Z"/><path class="cls-9" d="M1130.12,1432.73c10.12-9.6,17-19.47,23.52-31.37-1.47,19.76-3.63,38.42-8.91,57.7-6.57,10.24-12.9,20.8-20.86,30.19-25.36,29.93-64,52.78-104,62.16-38.56,9-76.83,2.38-112.22-13.23A128.08,128.08,0,0,1,882,1522.49c-6.72-5.11-15.64-6.15-27.12-12,5.61-23.88-2.51-52.78,3.23-76.65,14,11.16,27.22,23.34,43.13,32.28,38.61,21.69,88.38,26.34,132,16.6C1062.86,1476.06,1113.5,1458,1130.12,1432.73Z"/><path class="cls-16" d="M140.33,835.8c14.47,27.66,32.11,51.73,55.67,72.38,41.87,34.74,86.83,54.48,137.58,72.78-16.35,14.53-32.58,29.08-47.86,44.73-7.56,7.74-14.27,16.24-21.8,24-6,6.17-15.13,9.3-22,14.56-25.77,19.73-40.41,45.6-50,76-42.9-19.91-79.19-48-96.25-93.79a40.32,40.32,0,0,1-1.36-4.59c-10.86-23.35-11.77-55.12-10.46-80.35,2.11-9.29,3.62-18.76,5.32-28.13l1.76.18a30.91,30.91,0,0,0,6.45-.24l1.7,1a16.16,16.16,0,0,1,0,5.24c23.18-11.47,36.75-38.31,46.19-61.2C144.7,866.1,136.62,846.29,140.33,835.8Z"/><path class="cls-16" d="M89.15,933.31l1.76.18a30.91,30.91,0,0,0,6.45-.24l1.7,1a16.16,16.16,0,0,1,0,5.24c-2.32,7.86-.27,16,1,24L99,964.86l-.91-2.08-.84,1.32-1.18-.2c-1.26-2.67-2.75-5.29-2.41-8.34.07-.6.17-1.2.26-1.8l-1-.36-3.66,3.15-5.47,4.89C85.94,952.15,87.45,942.68,89.15,933.31Z"/><path class="cls-7" d="M145.29,878.27c8.76,24.3,20.6,47.47,38.79,66.2,1.44,2.13,3.23,4.51,4,7,2.21,7,.93,17.85,1.15,25.31.34,10.81,1.24,22.06,3.83,32.59,5.26,21.36,15.48,40,26.08,59.07-40.26-4.18-65.46-11.43-91.87-44.26-18.09-22.49-18.71-35.31-27.18-60.72-1.26-7.91-3.31-16.1-1-24C122.28,928,135.85,901.16,145.29,878.27Z"/><path class="cls-9" d="M529.13,217.92c20.92-9.5,101.82,3.94,124.56,11.43A247.61,247.61,0,0,0,615.59,257c-22.21,17.56-45.9,30.84-69.71,45.87-22.7,14.32-45.66,32.77-71.16,41.61-41.42,20.44-90.5,39.1-137.51,33.61-15.45-1.8-31.53-6.71-46.24-11.82-11.38-3.95-14.51-7-23.49-14.39l-1.41.88c-.47,5.47.31,10.59,1,16,0,.49-.13,1-.18,1.45a29.39,29.39,0,0,0,.22,5.93,10.86,10.86,0,0,1-1.35,2.49c-3.42,3.53-42.59,20.37-54,29.8C199,419,184.65,434.49,178.26,450c-2,4.94-2.43,11.4-5.39,15.77-2.75-17.29-2.72-39.36,2.67-56.19l1.54.5c4.4-3.77,14.89-27.73,18.78-34.63,23.33-41.49,51.5-74.95,90.3-102.92,24.34-17.55,39.7-24.63,67.29-35.31,4.76-1.85,13.49-3.89,15.76-8.19.94,11.49,3,30.44,12.18,38.42,1.54,1.34,2,1.3,3.83,1.78l2.49-1c7.15-5,20.31-7.44,28.73-10.58,7.57-2.82,14.81-6.2,22.07-9.73-2.09,7-13.62,12.39-19.92,15.78-1.8,1-3.61,1.92-5.42,2.86,10.21,3.62,20.6,7.27,31.34,8.88,12,0,25.26.62,36.84-2.87a31.24,31.24,0,0,0,7.46-2.52,134.16,134.16,0,0,0,12.85-5c13.15-5.92,24-13.49,29.24-27.5C533,229.44,532.4,225.74,529.13,217.92Z"/><path class="cls-7" d="M469.54,292c4.31.45,6.8.66,10,3.85,1.22,2.63,1.58,4.1.81,7-1.64,6.13-6.82,10.09-12,13.16a24.46,24.46,0,0,1-3.88-.78,11.6,11.6,0,0,1-6.91-7.5,11.94,11.94,0,0,1,1.35-8.89C461.42,294.57,465,293.15,469.54,292Z"/><path class="cls-7" d="M308.48,261.65c5-.14,9.16.53,13,4,1.16,2.82,1.75,4.36.87,7.38-2,6.89-7.07,10.17-12.83,13.79l-2.74.52a15.08,15.08,0,0,1-8-5.55,10.37,10.37,0,0,1-1.65-8.23C298.28,267.21,303.54,264.78,308.48,261.65Z"/><path class="cls-16" d="M529.13,217.92c20.92-9.5,101.82,3.94,124.56,11.43A247.61,247.61,0,0,0,615.59,257c-22.21,17.56-45.9,30.84-69.71,45.87-22.7,14.32-45.66,32.77-71.16,41.61,5.33-6.57,16.12-11.79,22.86-17.24,18.75-15.19,43.84-42.26,55.61-62.83-38.25.68-68.58,20.56-108.68,11,12,0,25.26.62,36.84-2.87a31.24,31.24,0,0,0,7.46-2.52,134.16,134.16,0,0,0,12.85-5c13.15-5.92,24-13.49,29.24-27.5C533,229.44,532.4,225.74,529.13,217.92Z"/><path class="cls-9" d="M958.86,448.89l1.12.36,2-1.77c4.54,3.89,7.1,12,10.37,17.11,16.56,25.94,30.3,51.56,40.21,80.82,5.89,17.37,9.94,35.51,14.4,53.29,2.27,9,4,18.76,7.73,27.33a12.76,12.76,0,0,0,5,6.2,170.36,170.36,0,0,0,16,46.42c3.88,7.49,8.66,14.91,11.85,22.69,5.55,42.55,14.05,88.81,50.17,116.77,15.62,12.1,36.28,18.25,56,15.71,5.18-.67,10.31-1.74,15.41-2.81-4.72,7.87-9.75,17.79-17.56,23.06-3,3.31-6.62,7.06-10.84,8.74a68.88,68.88,0,0,1-29.34,12.71c-3.65,1-5.11.8-7.44,3.89-.4,4.84,1.47,9.32,1.8,14.16-7.45-.38-14.45-1.71-20.76-5.83,3,24.42-14.06,67-29.15,86.35-11.29,14.47-28.47,28.83-47.31,31-6,.7-8.48.29-13.65-2.79-2-1.22-4.11-2.45-6.22-3.53l-4.7-7.19c22.92-59.48,16.67-120.46-4.9-179.33-9.15-25-20.09-48.75-26.36-74.74,1.14-12.2-3-25.42-2.67-38,2.37-85.26,12.8-147.32-22.61-229.07C950.5,463.22,953.84,455,958.86,448.89Z"/><path class="cls-17" d="M1089.5,865.88c14.4,6.27,26.15,8.9,41.89,9.64-3.65,1-5.11.8-7.44,3.89-.4,4.84,1.47,9.32,1.8,14.16-7.45-.38-14.45-1.71-20.76-5.83C1098.12,881.7,1093.7,873.86,1089.5,865.88Z"/><path class="cls-11" d="M1160.73,862.81a25.51,25.51,0,0,0-4.28.28c-.51.07-1,.25-1.5.3-7.76.92-31.4-5.84-38.41-10.86-2-1.46-2.68-1.63-3-4.19.39-.12,24.66,4.07,33.07,3,6.82-.84,27.69-9.53,30.83-8.59-.51,3.59-4.5,7.36-6.75,10.14l.9,1.15C1168.59,857.38,1165,861.13,1160.73,862.81Z"/><path class="cls-13" d="M889.32,462.69c9.37-1.08,16.39-5.32,24.19-10.24,6.59,17.61,13.6,35.07,18.49,53.25,20,74.33,22.88,161.61,5,236.66-4.37,18.34-10.84,35.92-17.79,53.41l-3.84,6.73c-16.74,36.86-42.46,67.18-72.81,93.6-10.31,7.92-21,16.52-32.18,23.11-9.93,5.84-21.32,10.21-30.75,16.7-14.44,5.91-28.77,12.24-43.41,17.61C692.94,967,649.72,977,604.59,982c-11,1.21-23,3-34,2.36a128.64,128.64,0,0,1-25.56,1c-62.85,6.05-202.68-12.82-258.91-43.77a139.24,139.24,0,0,1-15.63-7.14c-45.53-22.89-98.6-64.1-115-114.16l.92-2a19.79,19.79,0,0,1,.27-7l1.24-.29c5.82,8,11.51,16.53,18,24C189.18,850,210,864.36,227.12,875c119.42,74.53,307.81,86.16,443,54.62,69-16.09,150.79-48.25,189.4-111C911.57,733.89,912.11,557.77,889.32,462.69Z"/><path class="cls-10" d="M286.08,941.53l.51-3c2.21,2,3,3.61,6.11,3.22.44-.06.86-.23,1.31-.27,3.7-.28,35.26,12.35,40.1,14.46l-.12-.22c.66.34,1.3.68,2,1,7.48,3.58,18.42,4.2,26.6,6q15.58,3.45,31.3,6.33t31.51,5.14q15.81,2.28,31.69,4t31.81,2.75c16.66,1.25,33.64.33,50.18,2.26l-1.18.1c2.37.74,4.72,1.46,7.12,2.07C482.14,991.35,342.31,972.48,286.08,941.53Z"/><path class="cls-10" d="M570.55,984.33c-7.95-1.2-16.17-.17-24.22-1.11,6.94-1.84,15.17-1.74,22.38-2.53q25.53-2.79,51-5.89c85.25-11.14,170.31-35.11,234.19-95.59,12.76-12.08,27-27.27,36.75-41.87,6.39-9.59,14.9-28,22.53-35.06l2.18.22c-16.74,36.86-42.46,67.18-72.81,93.6-10.31,7.92-21,16.52-32.18,23.11-9.93,5.84-21.32,10.21-30.75,16.7-14.44,5.91-28.77,12.24-43.41,17.61C692.94,967,649.72,977,604.59,982,593.63,983.18,581.55,984.94,570.55,984.33Z"/><path class="cls-7" d="M395.86,1103.83c66.42-23.34,131.56-26.45,201-17.09,15.61,2.11,30.89,8.32,46.48,9.59l1,.07c-13.23,32.15-15.47,67.88-1.84,100.4,7.61,18.19,20,34.57,34.19,48.13,3.5,19.16,45.94,60.29,62.83,73.54,13.08,10.27,30.12,19,39.48,33,29.82,44.64,29.33,167.39,22.34,220.1l-1,.82c-36.75,13.18-70.9,18.31-110,16.06-8.34-.48-17.89-.64-26-2.44l-1.11,0c-14.64-3.34-27.81-8.2-41.89-13.12-7.86-22.51-11.93-50.28-14.54-74-1.64-9.24-4.33-19.66-3.71-29.06l2.46-1.85.59-3c-3-2.4-6.17-1.69-9.93-1.83-22.73,3.61-53.92-.22-76.74-3.3-25.62-4-40.36-9.57-64.53-16.91l-2.08-.62,6.82,6.25.57,1.1c6.35,11.84,17.4,18.71,25.26,29.16a57.55,57.55,0,0,1,9.87,22.07c4.26,19.31,2.69,60.35.47,80.54l-1,.54q-5.21.63-10.42,1.2c-44.88,4.84-102.64,2.11-139.55-27.56-14.71-56-19.84-143.42-17.91-201.84-2-29.65,6.8-64.12,14.49-92.8,23.21-15.63,38.05-32.4,52.19-56.5,1.09-5.17,3.86-10.75,5.43-15.9,4.72-15.52,6.26-29.29,6.31-45.51A226.72,226.72,0,0,0,395.86,1103.83Z"/><path class="cls-13" d="M405.46,1143.17c5.94,30.36-.41,53.69-12.79,81.2-1.59-.28-.77.08-2.18-1.58A11.46,11.46,0,0,0,393,1219c.49-1.38,1.17-2.45.54-3.86l-4.32,6.62c-1.26-2.53,4.74-12.44,4.49-17.16,1.09-5.17,3.86-10.75,5.43-15.9C403.87,1173.16,405.41,1159.39,405.46,1143.17Z"/><path class="cls-10" d="M393.72,1204.58c.25,4.72-5.75,14.63-4.49,17.16l4.32-6.62c.63,1.41-.05,2.48-.54,3.86a11.46,11.46,0,0,1-2.52,3.81c1.41,1.66.59,1.3,2.18,1.58-6.94,20.88-30.16,54.18-41.49,75.4-3.2,6-6.69,12.09-9.18,18.41-4.14,10.47-6.82,22.22-13,31.67-.8,1.22-.83,2.25-1.43,3.45a2.88,2.88,0,0,1-.52.58c-2-29.65,6.8-64.12,14.49-92.8C364.74,1245.45,379.58,1228.68,393.72,1204.58Z"/><path class="cls-13" d="M415.58,1407.65c57.55,21.53,127.32,26.73,188.14,18.43,24.7-3.37,48.52-9.37,72.63-15.56-10.42,14-34.07,32.69-38.57,48.62-2,7.23-1,15.77.05,23.13,5,34.75,16.34,70.16,26.57,103.73l-1.11,0c-14.64-3.34-27.81-8.2-41.89-13.12-7.86-22.51-11.93-50.28-14.54-74-1.64-9.24-4.33-19.66-3.71-29.06l2.46-1.85.59-3c-3-2.4-6.17-1.69-9.93-1.83-22.73,3.61-53.92-.22-76.74-3.3-25.62-4-40.36-9.57-64.53-16.91l-2.08-.62C442.05,1439.18,423.75,1416.44,415.58,1407.65Z"/><path class="cls-10" d="M606.86,1498.94c-1.64-9.24-4.33-19.66-3.71-29.06l2.46-1.85c-.05,1.89-.73,4.52.36,6l.33-2.41c1.64,6.46,4.2,14.37,2.93,21l-.32-.31Z"/><path class="cls-10" d="M519.53,1460c4.34-2.75,11.42-.77,16.68-1.55-4.48-.25-9.76.06-14-1.49,5-1.76,60.22,3.34,74.35,2.41a105.74,105.74,0,0,1-25.19,1.19c9.83,1.07,20.45-.39,29.94,1.48-1.69.44-3.38.86-5.09,1.26C573.54,1466.86,542.35,1463,519.53,1460Z"/><path class="cls-7" d="M753.42,292.87c.88-10.07,5-20.41,8.66-29.77,14.9-38.58,37.65-73.28,69.6-99.88,15-12.5,39.15-30.51,59.85-28.62,9.79.9,16.68,7.42,22.47,14.85,40.85,52.49,44.84,126.49,37.58,190.05-6.76,39.29-17.89,69.1-46.57,97.9-7.6,7.63-16.39,14.28-23.8,22,2.15,2.53,5,2.68,8.11,3.3,22.79,95.08,22.25,271.2-29.84,355.92-38.61,62.78-120.42,94.94-189.4,111-135.15,31.54-323.54,19.91-443-54.62-17.08-10.66-37.94-25-51.23-40.12-6.54-7.43-12.23-16-18-24l-1.24.29a19.79,19.79,0,0,0-.27,7l-.92,2c-8.58-18.71-11.54-41.56-10.08-62,2.29-32,20-55.31,24.89-85.17,3.38-20.59,2.64-42.23,3.41-63.09,1.21-32.89,5-65.65,13.14-97.58,9.54,0,40-17.55,50.72-22,7.46-3.06,15.19-4.95,23-6.81,17.1-.44,30.24-2.29,44.13-13.31,58.8,26.27,117.85,35.46,182,26.93,19.46-2.58,38.7-6.11,57.24-12.74,25.83-9.25,102.27-52.19,114.09-76.91,36.95-27.81,63.52-55.07,84.65-96.78,1.48-4,2.84-8.2,4.69-12C749,295.32,749.7,294,753.42,292.87Z"/><path class="cls-13" d="M742.61,310.84c1.48-4,2.84-8.2,4.69-12,1.69-3.51,2.4-4.8,6.12-6-3.51,25.34-1.17,47.12,1,72.39a148.77,148.77,0,0,1-9.09-33.38C744.34,326,745,316,742.61,310.84Z"/><path class="cls-16" d="M877.65,429.41c18.46-16.4,38.12-33.09,52.19-53.55,7.88-11.47,11.6-26.69,21.74-36.36-6.76,39.29-17.89,69.1-46.57,97.9-7.6,7.63-16.39,14.28-23.8,22Q879.35,444.41,877.65,429.41Z"/><path class="cls-8" d="M886.59,205.59a24.14,24.14,0,0,1,7.19.53c6.3,1.73,11.05,9.08,13.68,14.58,15.3,32,12.13,86.68.42,119.37-9.93,27.71-27.18,50.55-54,63.25-.33-12.51-1.22-23.85-7.32-35.1-3.39-4.69-6.34-7.81-11.85-9.91-14.45-5.5-33.19-1.52-46.76,4.94-.42-25.48,3.35-49.79,13.93-73.14C818.38,253.64,848.45,219.75,886.59,205.59Z"/><path class="cls-18" d="M1957.49,1111.63c3.22,0,3.23-5,0-5s-3.22,5,0,5Z"/><path class="cls-19" d="M183.72,762.5c4.65-8.89,13.22-15.3,22.59-18.87s19.55-4.54,29.58-4.57c2.46,0,4.93,0,7.39.17a79.21,79.21,0,0,1,24.24,4.63c10,3.8,19.19,10.6,24.29,20,31.13,57.52-75.11,65.43-102.93,34.66C179.77,788.49,177.26,774.83,183.72,762.5Z"/><path class="cls-19" d="M763.63,762.5c4.65-8.89,13.22-15.3,22.59-18.87s19.55-4.54,29.58-4.57c2.46,0,4.93,0,7.39.17a79.21,79.21,0,0,1,24.24,4.63c10,3.8,19.19,10.6,24.3,20,31.12,57.52-75.11,65.43-102.94,34.66C759.68,788.49,757.17,774.83,763.63,762.5Z"/><path class="cls-1" d="M224.32,675.86c3.23,69.41,68,125.19,138,91.92C393,753.23,412.41,722.9,417,693.54,441.63,534.18,217.08,520.13,224.32,675.86Z"/><polygon class="cls-20" points="308.2 660.53 321.7 607.28 334.45 661.65 383.86 673.41 333.45 685.38 318.41 741.24 306.48 683.47 260.62 671.02 308.2 660.53"/><path class="cls-21" d="M254.82,645.49c4.58,7.24,15.33,8.53,23,4.64,12.25-6.26,28.33-33.43,14.14-44.66-10.33-8.17-27.41-1.39-33.66,8.72C253.34,622.14,249.4,636.93,254.82,645.49Z"/><path class="cls-21" d="M259.39,720.74c1.84,2.42,4.21,4.75,7.22,5.18,4.75.68,8.7-3.54,11.26-7.61C285,707,286.07,686.47,267.56,688,249.87,689.41,251,709.72,259.39,720.74Z"/><path class="cls-1" d="M644.9,675.86c3.23,69.41,68,125.19,138,91.92,30.61-14.55,50.07-44.88,54.62-74.24C862.21,534.18,637.66,520.13,644.9,675.86Z"/><polygon class="cls-20" points="728.78 660.53 742.28 607.28 755.03 661.65 804.44 673.41 754.03 685.38 738.99 741.24 727.06 683.47 681.2 671.02 728.78 660.53"/><path class="cls-21" d="M675.4,645.49c4.58,7.24,15.33,8.53,23,4.64,12.25-6.26,28.33-33.43,14.14-44.66-10.33-8.17-27.41-1.39-33.66,8.72C673.92,622.14,670,636.93,675.4,645.49Z"/><path class="cls-21" d="M680,720.74c1.84,2.42,4.21,4.75,7.22,5.18,4.75.68,8.7-3.54,11.26-7.61,7.12-11.33,8.2-31.84-10.31-30.34C670.45,689.41,671.61,709.72,680,720.74Z"/><path class="cls-19" d="M517.52,839.68c-5.7-2.44-10.68-7-12.59-12.9-7.69-23.7,23.91-59.44,48.49-48.2,17.37,7.94,26,32.25,14.64,48.34C557.85,841.36,533.45,846.49,517.52,839.68Z"/><path class="cls-1" d="M564.19,770.59a13.4,13.4,0,0,1-16.34,20.18c-7.49-3.42-16.3,3.64-18.83,5.88-8.6,7.67-13.57,19.09-11.34,26,.58,1.78,2.58,3.63,5.11,4.72,7.51,3.2,19,2.28,27.22-2.21a13.41,13.41,0,0,1,12.8,23.56c-15.59,8.46-35.44,9.76-50.56,3.29-9.76-4.17-17.08-11.88-20.07-21.09-6.49-20,4.87-41.67,19-54.27C526.1,763.35,544,759.52,559,766.39A13.29,13.29,0,0,1,564.19,770.59Z"/><path class="cls-1" d="M229.5,491.84a12.87,12.87,0,0,1-2.39-.21,13.42,13.42,0,0,1-10.83-15.57,40.29,40.29,0,0,1,51.07-31.51,13.41,13.41,0,0,1-7.58,25.72,13.48,13.48,0,0,0-17.1,10.54A13.4,13.4,0,0,1,229.5,491.84Z"/><path class="cls-1" d="M834.1,504.62h-.37a13.41,13.41,0,0,1-13-13.76,14.56,14.56,0,0,0-18.13-14.51,13.41,13.41,0,1,1-6.6-26,41.37,41.37,0,0,1,51.53,41.21A13.41,13.41,0,0,1,834.1,504.62Z"/><path class="cls-21" d="M236.64,768.19a10.62,10.62,0,0,0-2.78-4.85,8.16,8.16,0,0,0-3.56-2.26,9.71,9.71,0,0,0-8,0,8.16,8.16,0,0,0-3.56,2.26,10.71,10.71,0,0,0-2.78,4.85c-.43,1.28-.87,2.56-1.3,3.85-.1.3-.22.6-.31.91a16.08,16.08,0,0,0-.42,3.48c-.05.65-.1,1.3-.14,1.94.1.82.2,1.63.31,2.45l.94,2.31,1.57,2.06a7.19,7.19,0,0,0,3.21,2,4.74,4.74,0,0,0,2.38.63,4.8,4.8,0,0,0,2.44,0,4.74,4.74,0,0,0,2.38-.63,7.19,7.19,0,0,0,3.21-2l1.18-1.52a17.18,17.18,0,0,0,2.19-2.89c.14-.29.25-.59.38-.88.54-1.24,1.07-2.49,1.61-3.73A10.7,10.7,0,0,0,237,770.9C236.87,770,236.76,769.09,236.64,768.19Z"/><path class="cls-21" d="M264.8,774.13l-1-2.4a10.17,10.17,0,0,0-3.75-3.76,7.45,7.45,0,0,0-3.67-1.13,7.55,7.55,0,0,0-3.8.16,11.24,11.24,0,0,0-6.15,4.73,10,10,0,0,0-1.3,4.93c0,.58,0,1.17,0,1.76,0,.13,0,.27,0,.4a4.28,4.28,0,0,0,.15,1.33,6.9,6.9,0,0,0,.17,1.29,8.66,8.66,0,0,0,1,2.44l.18.32.08.12a5.35,5.35,0,0,0,.79,1,7.21,7.21,0,0,0,.79,1l2,1.5a6.9,6.9,0,0,0,3.37,1,4.6,4.6,0,0,0,2.33,0,6.93,6.93,0,0,0,3.37-1c.36-.25.7-.51,1-.79a4.07,4.07,0,0,0,1-.78l.13-.12a3.07,3.07,0,0,1,.25-.26l0-.05,1.59-2.08a8,8,0,0,0,.52-1.25,3.88,3.88,0,0,0,.48-1.22c0-.15.07-.29.1-.44l.36-1.72A9.86,9.86,0,0,0,264.8,774.13Z"/><path class="cls-21" d="M818.57,770.27a10.59,10.59,0,0,0-2.78-4.84,11,11,0,0,0-15.11,0,10.68,10.68,0,0,0-2.78,4.84c-.6,1.6-1.27,3.19-1.72,4.84-.11.41-.23.81-.34,1.21-.05.21-.11.41-.16.61-.59,2.28-.32,3.11,0,5.41.09.69.19,1.39.28,2.09a8.8,8.8,0,0,0,6.28,6.28,8.79,8.79,0,0,0,8.45-2.29c.62-.48,1.27-.93,1.86-1.45a15.22,15.22,0,0,0,2.87-4.13c.82-1.47,1.44-3.05,2.13-4.58a10.74,10.74,0,0,0,1.39-5.28Z"/><path class="cls-21" d="M845,777.2a8.16,8.16,0,0,0-1.95-3.78,8.42,8.42,0,0,0-3.21-2.94l-2.62-1.06a11,11,0,0,0-5.52,0l-2.62,1.06a11,11,0,0,0-4.1,4.1L823.6,777a11.09,11.09,0,0,0,4,14.66l2.59,1a10.71,10.71,0,0,0,5.45,0l2.59-1a10.8,10.8,0,0,0,4-4l1.65-2.23A12.25,12.25,0,0,0,845,777.2Z"/></g></g></svg>